<svg xmlns="http://www.w3.org/2000/svg" width="104.4257" height="104.4258" viewBox="0 0 27.6293 27.6293">
  <path d="M9.8459 4.2333C8.328 5.3272 7.9749.4915 4.2333 4.2331c-3.742 3.742.716 3.8843 0 5.6128S.2646 8.523.2646 13.8146c0 5.2919 3.1534 2.8375 3.9687 3.9688 1.094 1.5178-3.7418 1.8712 0 5.6128 3.742 3.7418 4.236-.2235 5.6126-.0002 1.8467.2996-1.3227 3.9688 3.9687 3.9687 5.292 0 2.8375-3.1534 3.9688-3.9687 1.5178-1.094 1.8712 3.7419 5.6129.0003 3.7419-3.742-.2237-4.2363-.0003-5.6129.2996-1.8467 3.9687 1.3228 3.9687-3.9687 0-5.2918-3.1534-2.8375-3.9687-3.9688-1.094-1.5178 3.742-1.8711.0002-5.6128-3.7418-3.7418-4.2362.2236-5.6128.0002-1.8467-.2996 1.323-3.9687-3.9688-3.9687-5.2916 0-2.8374 3.1534-3.9687 3.9687zm3.9688 5.6126c2.1918 0 3.9687 1.7769 3.9687 3.9688s-1.7769 3.9687-3.9687 3.9687c-2.192 0-3.9688-1.7769-3.9688-3.9687 0-2.192 1.7769-3.9688 3.9688-3.9688z" fill="#c0edfb" stroke="#67ccf5" stroke-width=".5292"/>
</svg>
