<svg xmlns="http://www.w3.org/2000/svg" width="158" height="113" viewBox="0 0 41.804 29.898">
  <path fill="#c0edfb" stroke="#67ccf5" stroke-linecap="round" stroke-linejoin="round" stroke-width=".7937399999999999" d="M4.366.397a3.96 3.96 0 0 0-3.97 3.969v21.166a3.96 3.96 0 0 0 3.97 3.969h33.073a3.96 3.96 0 0 0 3.968-3.969V4.366A3.96 3.96 0 0 0 37.44.396h-9.643zm12.567 9.26l10.584 5.292-10.584 5.292z"/>
  <path fill="#c0edfb" stroke="#67ccf5" stroke-width=".529" d="M-25.4 15.951c-1.518 1.094-1.871-3.742-5.613 0-3.742 3.742.716 3.884 0 5.613-.716 1.728-3.968-1.323-3.968 3.968 0 5.292 3.153 2.838 3.968 3.97 1.094 1.517-3.741 1.87 0 5.612 3.742 3.742 4.236-.224 5.613 0 1.847.3-1.323 3.968 3.969 3.968s2.837-3.153 3.969-3.968c1.517-1.094 1.87 3.742 5.612 0s-.223-4.236 0-5.613c.3-1.847 3.969 1.323 3.969-3.969 0-5.291-3.154-2.837-3.969-3.968-1.094-1.518 3.742-1.872 0-5.613-3.741-3.742-4.236.223-5.613 0-1.846-.3 1.323-3.969-3.968-3.969-5.292 0-2.838 3.154-3.969 3.969zm3.969 5.613a3.969 3.969 0 1 1 0 7.937 3.969 3.969 0 0 1 0-7.937z"/>
</svg>
