<?xml version="1.0" encoding="UTF-8" standalone="no"?>
<!-- Created with Inkscape (http://www.inkscape.org/) -->

<svg
   xmlns:dc="http://purl.org/dc/elements/1.1/"
   xmlns:cc="http://creativecommons.org/ns#"
   xmlns:rdf="http://www.w3.org/1999/02/22-rdf-syntax-ns#"
   xmlns:svg="http://www.w3.org/2000/svg"
   xmlns="http://www.w3.org/2000/svg"
   xmlns:sodipodi="http://sodipodi.sourceforge.net/DTD/sodipodi-0.dtd"
   xmlns:inkscape="http://www.inkscape.org/namespaces/inkscape"
   width="115.82631"
   height="124.75002"
   viewBox="0 0 30.645711 33.006776"
   version="1.1"
   id="svg8"
   inkscape:version="0.92.2 (5c3e80d, 2017-08-06)"
   sodipodi:docname="lampada.svg">
  <defs
     id="defs2" />
  <sodipodi:namedview
     id="base"
     pagecolor="#ffffff"
     bordercolor="#666666"
     borderopacity="1.0"
     inkscape:pageopacity="0.0"
     inkscape:pageshadow="2"
     inkscape:zoom="2.125"
     inkscape:cx="94.505745"
     inkscape:cy="95.429738"
     inkscape:document-units="px"
     inkscape:current-layer="layer1"
     showgrid="true"
     units="px"
     inkscape:snap-nodes="true"
     inkscape:object-nodes="true"
     inkscape:snap-intersection-paths="false"
     inkscape:snap-grids="true"
     inkscape:snap-to-guides="true"
     inkscape:window-width="1366"
     inkscape:window-height="745"
     inkscape:window-x="-8"
     inkscape:window-y="-8"
     inkscape:window-maximized="1"
     inkscape:snap-smooth-nodes="true"
     inkscape:snap-object-midpoints="false"
     inkscape:snap-center="false"
     fit-margin-top="0"
     fit-margin-left="0"
     fit-margin-right="0"
     fit-margin-bottom="0">
    <inkscape:grid
       type="xygrid"
       id="grid4558"
       dotted="false"
       visible="true"
       spacingx="0.26458334"
       spacingy="0.26458334"
       originx="3.8109086e-009"
       originy="3.5003321e-006" />
  </sodipodi:namedview>
  <metadata
     id="metadata5">
    <rdf:RDF>
      <cc:Work
         rdf:about="">
        <dc:format>image/svg+xml</dc:format>
        <dc:type
           rdf:resource="http://purl.org/dc/dcmitype/StillImage" />
        <dc:title></dc:title>
        <cc:license
           rdf:resource="http://creativecommons.org/licenses/by-nc-sa/4.0/" />
      </cc:Work>
      <cc:License
         rdf:about="http://creativecommons.org/licenses/by-nc-sa/4.0/">
        <cc:permits
           rdf:resource="http://creativecommons.org/ns#Reproduction" />
        <cc:permits
           rdf:resource="http://creativecommons.org/ns#Distribution" />
        <cc:requires
           rdf:resource="http://creativecommons.org/ns#Notice" />
        <cc:requires
           rdf:resource="http://creativecommons.org/ns#Attribution" />
        <cc:prohibits
           rdf:resource="http://creativecommons.org/ns#CommercialUse" />
        <cc:permits
           rdf:resource="http://creativecommons.org/ns#DerivativeWorks" />
        <cc:requires
           rdf:resource="http://creativecommons.org/ns#ShareAlike" />
      </cc:License>
    </rdf:RDF>
  </metadata>
  <g
     inkscape:label="Camada 1"
     inkscape:groupmode="layer"
     id="layer1"
     transform="translate(0,-263.99322)">
    <path
       style="fill:#c0edfb;fill-opacity:1;stroke:#67ccf5;stroke-width:0.5291667;stroke-linecap:butt;stroke-linejoin:round;stroke-miterlimit:4;stroke-dasharray:none;stroke-opacity:1"
       d="m 6.0624378,278.21458 c 1e-6,6.61458 5.2916672,7.93749 5.2916672,13.22916 0,3.96875 0,3.96875 3.96875,3.96875 3.968751,0 3.968752,0 3.968751,-3.96875 -1e-6,-5.29167 5.291666,-6.61458 5.291666,-13.22916 0,-5.11439 -4.146029,-9.26042 -9.260417,-9.26042 -5.114388,0 -9.2604192,4.14603 -9.2604172,9.26042 z"
       id="path4664"
       inkscape:connector-curvature="0"
       sodipodi:nodetypes="cscsccc"
       inkscape:export-xdpi="192.28795"
       inkscape:export-ydpi="192.28795" />
    <path
       style="fill:none;stroke:#1a5aff;stroke-width:0.39687502;stroke-linecap:butt;stroke-linejoin:miter;stroke-miterlimit:4;stroke-dasharray:none;stroke-opacity:1"
       d="m 12.677022,292.76666 c 0,0 -10e-7,-5.29167 -1.322917,-13.22917 0.563555,-0.26706 0.699287,1.32292 1.322917,1.32292 0.62363,0 0.699286,-1.32292 1.322916,-1.32292 0.62363,0 0.699287,1.32292 1.322917,1.32292 0.62363,0 0.699287,-1.32292 1.322917,-1.32292 0.62363,0 0.699287,1.32292 1.322917,1.32292 0.62363,0 0.759361,-1.58998 1.322916,-1.32292 -1.322917,7.9375 -1.322916,13.22917 -1.322916,13.22917"
       id="path4698"
       inkscape:connector-curvature="0"
       sodipodi:nodetypes="ccccccccc"
       inkscape:export-xdpi="192.28795"
       inkscape:export-ydpi="192.28795" />
    <path
       style="fill:#54bde6;fill-opacity:1;stroke:#54bde6;stroke-width:0.5291667;stroke-linecap:butt;stroke-linejoin:round;stroke-miterlimit:4;stroke-dasharray:none;stroke-opacity:1"
       d="m 19.291605,292.76666 c 0,3.96875 0,3.96875 -3.96875,3.96875 -3.968751,0 -3.968751,0 -3.968751,-3.96875 1e-6,-5.29167 -1.322916,-2.64584 3.968751,-2.64584 5.291667,0 3.96875,-2.64583 3.96875,2.64584 z"
       id="path4664-0"
       inkscape:connector-curvature="0"
       sodipodi:nodetypes="ccccc"
       inkscape:export-xdpi="192.28795"
       inkscape:export-ydpi="192.28795" />
    <path
       style="fill:#7ed7fb;fill-opacity:1;stroke:none;stroke-width:0.26458335px;stroke-linecap:butt;stroke-linejoin:miter;stroke-opacity:1"
       d="m 6.6783458,267.79471 c 0.850352,1.01341 0,0 0.850347,1.0134 0.850353,1.01342 -0.568411,2.2039 -1.41877,1.19049 -0.850354,-1.01339 0,0 -0.850368,-1.01341 -0.850356,-1.01339 0.568433,-2.2039 1.418791,-1.19048 z"
       id="path4728"
       inkscape:connector-curvature="0"
       sodipodi:nodetypes="ccccc"
       inkscape:transform-center-x="8.9287307"
       inkscape:transform-center-y="-10.640836"
       inkscape:export-xdpi="192.28795"
       inkscape:export-ydpi="192.28795" />
    <path
       style="fill:#7ed7fb;fill-opacity:1;stroke:none;stroke-width:0.26458335px;stroke-linecap:butt;stroke-linejoin:miter;stroke-opacity:1"
       d="m 1.1526648,276.09858 c 1.302811,0.22971 0,0 1.302808,0.22972 1.302823,0.22973 0.981209,2.05366 -0.32161,1.82394 -1.30281495,-0.22973 0,0 -1.30282295,-0.22972 -1.302811,-0.22972 -0.9812,-2.05367 0.32162495,-1.82394 z"
       id="path4728-1"
       inkscape:connector-curvature="0"
       sodipodi:nodetypes="ccccc"
       inkscape:transform-center-y="-2.41208"
       inkscape:transform-center-x="13.679593"
       inkscape:export-xdpi="192.28795"
       inkscape:export-ydpi="192.28795" />
    <path
       style="fill:#7ed7fb;fill-opacity:1;stroke:none;stroke-width:0.26458335px;stroke-linecap:butt;stroke-linejoin:miter;stroke-opacity:1"
       d="m 16.248893,264.98541 c 1.1e-5,1.32291 0,0 6e-6,1.32291 -1.5e-5,1.32292 -1.852084,1.32292 -1.852081,0 1e-6,-1.32291 0,0 -5e-6,-1.32292 2e-6,-1.32291 1.852083,-1.32291 1.85208,10e-6 z"
       id="path4728-1-1"
       inkscape:connector-curvature="0"
       sodipodi:nodetypes="ccccc"
       inkscape:transform-center-y="-13.890626"
       inkscape:export-xdpi="192.28795"
       inkscape:export-ydpi="192.28795" />
    <path
       style="fill:#7ed7fb;fill-opacity:1;stroke:none;stroke-width:0.26458335px;stroke-linecap:butt;stroke-linejoin:miter;stroke-opacity:1"
       d="m 29.814665,277.92251 c -1.302818,0.22975 0,0 -1.302822,0.22974 -1.302814,0.2297 -1.624428,-1.59423 -0.321607,-1.82394 1.302814,-0.22972 0,0 1.30282,-0.22973 1.302815,-0.22973 1.624428,1.59422 0.321609,1.82393 z"
       id="path4728-1-1-4"
       inkscape:connector-curvature="0"
       sodipodi:nodetypes="ccccc"
       inkscape:transform-center-y="-2.4120771"
       inkscape:transform-center-x="-13.679594"
       inkscape:export-xdpi="192.28795"
       inkscape:export-ydpi="192.28795" />
    <path
       style="fill:#7ed7fb;fill-opacity:1;stroke:none;stroke-width:0.26458335px;stroke-linecap:butt;stroke-linejoin:miter;stroke-opacity:1"
       d="m 25.386144,268.98521 c -0.850346,1.0134 0,0 -0.850349,1.0134 -0.850374,1.01339 -2.269139,-0.17709 -1.41878,-1.1905 0.85035,-1.0134 0,0 0.850354,-1.01341 0.850355,-1.01341 2.269129,0.17709 1.418775,1.19051 z"
       id="path4728-1-1-4-8"
       inkscape:connector-curvature="0"
       sodipodi:nodetypes="ccccc"
       inkscape:transform-center-y="-10.64084"
       inkscape:transform-center-x="-8.928723"
       inkscape:export-xdpi="192.28795"
       inkscape:export-ydpi="192.28795" />
  </g>
</svg>
