<!-- <?xml-stylesheet href="lam.css"?> -->
<?xml-stylesheet href="lampada.css" type="text/css"?>
<svg xmlns="http://www.w3.org/2000/svg" width="115.826" height="124.75" viewBox="0 0 30.646 33.007">
  <g class="all">
    <path class="lightbulb" d="M6.062 14.221c0 6.615 5.292 7.938 5.292 13.23 0 3.968 0 3.968 3.969 3.968s3.969 0 3.969-3.968c0-5.292 5.291-6.615 5.291-13.23a9.26 9.26 0 1 0-18.52 0z" fill="#c0edfb" stroke="#67ccf5" stroke-width=".529" stroke-linejoin="round"/>
    <path class="filament" d="M12.677 28.773s0-5.291-1.323-13.229c.564-.267.7 1.323 1.323 1.323.624 0 .7-1.323 1.323-1.323.624 0 .7 1.323 1.323 1.323s.7-1.323 1.323-1.323.7 1.323 1.323 1.323.759-1.59 1.323-1.323c-1.323 7.938-1.323 13.23-1.323 13.23" fill="none" stroke="#1a5aff" stroke-width=".397"/>
    <path class="screw" d="M19.292 28.773c0 3.97 0 3.97-3.97 3.97-3.968 0-3.968 0-3.968-3.97 0-5.291-1.323-2.645 3.969-2.645s3.969-2.646 3.969 2.645z" fill="#54bde6" stroke="#54bde6" stroke-width=".529" stroke-linejoin="round"/>
  </g>
  <path class="photons" d="M6.678 3.801l.85 1.014c.851 1.013-.568 2.204-1.418 1.19l-.85-1.013c-.85-1.013.568-2.204 1.418-1.19zM1.153 12.105l1.302.23c1.303.23.982 2.054-.321 1.824l-1.303-.23c-1.303-.23-.981-2.053.322-1.824zM16.249.992v1.323c0 1.323-1.852 1.323-1.852 0V.992c0-1.323 1.852-1.323 1.852 0zM29.815 13.93l-1.303.229c-1.303.23-1.625-1.594-.322-1.824l1.303-.23c1.303-.23 1.624 1.595.322 1.824zM25.386 4.992l-.85 1.013c-.85 1.014-2.27-.177-1.419-1.19l.85-1.014c.85-1.013 2.27.178 1.42 1.191z" fill="#7ed7fb"/>
</svg>
