<?xml-stylesheet href="lampada.css" type="text/css"?>
<svg xmlns="http://www.w3.org/2000/svg" width="124.75" height="124.75" viewBox="0 0 33.007 33.007">
  <g class="all">
    <path class="lightbulb" fill="#c0edfb" stroke="#67ccf5" stroke-linejoin="round" stroke-width=".529" d="M7.242 14.221c0 6.615 5.292 7.938 5.292 13.23 0 3.968 0 3.968 3.97 3.968 3.968 0 3.968 0 3.968-3.968 0-5.292 5.291-6.615 5.291-13.23a9.26 9.26 0 1 0-18.52 0z"/>
    <path class="filament" fill="none" stroke="#1a5aff" stroke-width=".397" d="M13.857 28.773s0-5.291-1.323-13.229c.564-.267.7 1.323 1.323 1.323.624 0 .7-1.323 1.323-1.323.624 0 .7 1.323 1.323 1.323s.7-1.323 1.323-1.323.7 1.323 1.323 1.323.76-1.59 1.323-1.323c-1.323 7.938-1.323 13.23-1.323 13.23"/>
    <path class="screw" fill="#54bde6" stroke="#54bde6" stroke-linejoin="round" stroke-width=".529" d="M20.472 28.773c0 3.97 0 3.97-3.97 3.97-3.968 0-3.968 0-3.968-3.97 0-5.291-1.323-2.645 3.97-2.645 5.291 0 3.968-2.646 3.968 2.645z"/>
  </g>
  <path class="photons" fill="#7ed7fb" d="M7.858 3.801l.85 1.014c.851 1.013-.568 2.204-1.418 1.19l-.85-1.013c-.85-1.013.568-2.204 1.418-1.19zm-5.525 8.304l1.302.23c1.303.23.982 2.054-.32 1.824l-1.304-.23c-1.303-.23-.98-2.053.322-1.824zM17.43.992v1.323c0 1.323-1.852 1.323-1.852 0V.992c0-1.323 1.852-1.323 1.852 0zM30.995 13.93l-1.303.229c-1.303.23-1.625-1.594-.322-1.824l1.303-.23c1.303-.23 1.624 1.595.322 1.824zm-4.429-8.938l-.85 1.013c-.85 1.014-2.27-.177-1.419-1.19l.85-1.014c.85-1.013 2.27.178 1.42 1.191z"/>
</svg>