<?xml version="1.0" encoding="UTF-8" standalone="no"?>
<!-- Created with Inkscape (http://www.inkscape.org/) -->

<svg
   xmlns:dc="http://purl.org/dc/elements/1.1/"
   xmlns:cc="http://creativecommons.org/ns#"
   xmlns:rdf="http://www.w3.org/1999/02/22-rdf-syntax-ns#"
   xmlns:svg="http://www.w3.org/2000/svg"
   xmlns="http://www.w3.org/2000/svg"
   xmlns:sodipodi="http://sodipodi.sourceforge.net/DTD/sodipodi-0.dtd"
   xmlns:inkscape="http://www.inkscape.org/namespaces/inkscape"
   width="360"
   height="125.00001"
   viewBox="0 0 95.25 33.07292"
   version="1.1"
   id="svg8"
   inkscape:version="0.92.2 (5c3e80d, 2017-08-06)"
   sodipodi:docname="logo.svg">
  <defs
     id="defs2" />
  <sodipodi:namedview
     id="base"
     pagecolor="#ffffff"
     bordercolor="#666666"
     borderopacity="1.0"
     inkscape:pageopacity="0.0"
     inkscape:pageshadow="2"
     inkscape:zoom="1.979899"
     inkscape:cx="172.45241"
     inkscape:cy="81.019205"
     inkscape:document-units="px"
     inkscape:current-layer="layer1"
     showgrid="true"
     units="px"
     inkscape:snap-nodes="true"
     inkscape:object-nodes="true"
     inkscape:snap-intersection-paths="false"
     inkscape:snap-grids="true"
     inkscape:snap-to-guides="true"
     inkscape:window-width="1366"
     inkscape:window-height="745"
     inkscape:window-x="-8"
     inkscape:window-y="-8"
     inkscape:window-maximized="1"
     fit-margin-top="0"
     fit-margin-left="0"
     fit-margin-right="0"
     fit-margin-bottom="0">
    <inkscape:grid
       type="xygrid"
       id="grid4558"
       dotted="false"
       visible="true"
       originx="-17.197917"
       originy="-35.718752" />
  </sodipodi:namedview>
  <metadata
     id="metadata5">
    <rdf:RDF>
      <cc:Work
         rdf:about="">
        <dc:format>image/svg+xml</dc:format>
        <dc:type
           rdf:resource="http://purl.org/dc/dcmitype/StillImage" />
        <dc:title></dc:title>
      </cc:Work>
    </rdf:RDF>
  </metadata>
  <g
     inkscape:label="Camada 1"
     inkscape:groupmode="layer"
     id="layer1"
     transform="translate(-17.197917,-228.20832)">
    <flowRoot
       xml:space="preserve"
       id="flowRoot4504"
       style="font-style:normal;font-variant:normal;font-weight:normal;font-stretch:normal;font-size:96px;line-height:1.25;font-family:'Ink Free';-inkscape-font-specification:'Ink Free';letter-spacing:0px;word-spacing:0px;fill:#000000;fill-opacity:1;stroke:none"
       transform="matrix(0.26458334,0,0,0.26458334,0,201.74999)"><flowRegion
         id="flowRegion4506"
         style="font-style:normal;font-variant:normal;font-weight:normal;font-stretch:normal;font-size:96px;font-family:'Ink Free';-inkscape-font-specification:'Ink Free'"><rect
           id="rect4508"
           width="277.85715"
           height="120.71429"
           x="47.857143"
           y="87.14286"
           style="font-style:normal;font-variant:normal;font-weight:normal;font-stretch:normal;font-size:96px;font-family:'Ink Free';-inkscape-font-specification:'Ink Free'" /></flowRegion><flowPara
         id="flowPara4510" /></flowRoot>    <path
       style="fill:#00115e;fill-opacity:1;stroke:none;stroke-width:0.26458335px;stroke-linecap:butt;stroke-linejoin:miter;stroke-opacity:1"
       d="M 112.44792,228.20832 H 17.197917 c 0,11.02431 0,22.04861 0,33.07292 h 95.250003"
       id="path4596"
       inkscape:connector-curvature="0"
       sodipodi:nodetypes="cccc"
       inkscape:export-xdpi="96"
       inkscape:export-ydpi="96" />
    <g
       aria-label="CÆCUS"
       transform="matrix(0.26458334,0,0,0.26458334,0,201.74999)"
       style="font-style:normal;font-variant:normal;font-weight:normal;font-stretch:normal;font-size:96px;line-height:1.25;font-family:'Open Sans';-inkscape-font-specification:'Open Sans';letter-spacing:0px;word-spacing:0px;fill:#ffffff;fill-opacity:1;stroke:none"
       id="flowRoot4528"
       inkscape:export-xdpi="96"
       inkscape:export-ydpi="96">
      <path
         d="m 117.33789,136.24235 q -11.29687,0 -17.859374,7.54687 -6.515625,7.5 -6.515625,20.57813 0,13.45312 6.28125,20.8125 6.328129,7.3125 17.999999,7.3125 7.17188,0 16.35938,-2.57813 v 6.98438 q -7.125,2.67187 -17.57813,2.67187 -15.14062,0 -23.390624,-9.1875 -8.203125,-9.1875 -8.203125,-26.10937 0,-10.59375 3.9375,-18.5625 3.984375,-7.96875 11.4375,-12.28125 7.499999,-4.3125 17.624999,-4.3125 10.78125,0 18.84375,3.9375 l -3.375,6.84375 q -7.78125,-3.65625 -15.5625,-3.65625 z"
         id="path4560"
         inkscape:connector-curvature="0"
         style="fill:#ffffff;fill-opacity:1" />
      <path
         d="M 217.18164,198.63297 H 182.02539 V 170 h -20.52232 l -14.21205,28.63297 c 0,0 -2.87523,0 -8.25,0 20.66761,-42.47773 25.40839,-58.47763 33.61161,-65.85268 2.23469,-4.20992 44.52901,-2.67857 44.52901,-2.67857 v 7.07813 h -27.1875 v 25.7889 h 25.35938 V 170 h -25.35938 v 21.50797 h 27.1875 z m -52.49107,-35.80485 h 17.33482 v -25.64827 c 0,0 -4.8721,1.76415 -6.60269,3.57142 -5.65909,5.90986 -10.73213,22.07685 -10.73213,22.07685 z"
         id="path4562"
         inkscape:connector-curvature="0"
         sodipodi:nodetypes="ccccccccccccccccccccac"
         style="fill:#ffffff;fill-opacity:1" />
      <path
         d="m 261.71289,136.24235 q -11.29687,0 -17.85937,7.54687 -6.51563,7.5 -6.51563,20.57813 0,13.45312 6.28125,20.8125 6.32813,7.3125 18,7.3125 7.17188,0 16.35938,-2.57813 v 6.98438 q -7.125,2.67187 -17.57813,2.67187 -15.14062,0 -23.39062,-9.1875 -8.20313,-9.1875 -8.20313,-26.10937 0,-10.59375 3.9375,-18.5625 3.98438,-7.96875 11.4375,-12.28125 7.5,-4.3125 17.625,-4.3125 10.78125,0 18.84375,3.9375 l -3.375,6.84375 q -7.78125,-3.65625 -15.5625,-3.65625 z"
         id="path4564"
         inkscape:connector-curvature="0"
         style="fill:#ffffff;fill-opacity:1" />
      <path
         d="m 344.68164,130.10172 v 44.34375 q 0,11.71875 -7.07812,18.42188 -7.07813,6.70312 -19.45313,6.70312 -12.375,0 -19.17187,-6.75 -6.75,-6.75 -6.75,-18.5625 v -44.15625 h 7.96875 v 44.71875 q 0,8.57813 4.6875,13.17188 4.6875,4.59375 13.78125,4.59375 8.67187,0 13.35937,-4.59375 4.6875,-4.64063 4.6875,-13.26563 v -44.625 z"
         id="path4566"
         inkscape:connector-curvature="0"
         style="fill:#ffffff;fill-opacity:1" />
      <path
         d="m 401.54102,180.3986 q 0,9.04687 -6.5625,14.10937 -6.5625,5.0625 -17.8125,5.0625 -12.1875,0 -18.75,-3.14062 v -7.6875 q 4.21875,1.78125 9.1875,2.8125 4.96875,1.03125 9.84375,1.03125 7.96875,0 12,-3 4.03125,-3.04688 4.03125,-8.4375 0,-3.5625 -1.45313,-5.8125 -1.40625,-2.29688 -4.78125,-4.21875 -3.32812,-1.92188 -10.17187,-4.35938 -9.5625,-3.42187 -13.6875,-8.10937 -4.07813,-4.6875 -4.07813,-12.23438 0,-7.92187 5.95313,-12.60937 5.95312,-4.6875 15.75,-4.6875 10.21875,0 18.79687,3.75 l -2.48437,6.9375 q -8.48438,-3.5625 -16.5,-3.5625 -6.32813,0 -9.89063,2.71875 -3.5625,2.71875 -3.5625,7.54687 0,3.5625 1.3125,5.85938 1.3125,2.25 4.40625,4.17187 3.14063,1.875 9.5625,4.17188 10.78125,3.84375 14.8125,8.25 4.07813,4.40625 4.07813,11.4375 z"
         id="path4568"
         inkscape:connector-curvature="0"
         style="fill:#ffffff;fill-opacity:1" />
    </g>
    <flowRoot
       transform="matrix(0.26458334,0,0,0.26458334,11.906249,136.26562)"
       xml:space="preserve"
       id="flowRoot4504-0"
       style="font-style:normal;font-variant:normal;font-weight:normal;font-stretch:normal;font-size:96px;line-height:1.25;font-family:'Ink Free';-inkscape-font-specification:'Ink Free';letter-spacing:0px;word-spacing:0px;fill:#000000;fill-opacity:1;stroke:none"><flowRegion
         id="flowRegion4506-5"
         style="font-style:normal;font-variant:normal;font-weight:normal;font-stretch:normal;font-size:96px;font-family:'Ink Free';-inkscape-font-specification:'Ink Free'"><rect
           id="rect4508-7"
           width="277.85715"
           height="120.71429"
           x="47.857143"
           y="87.14286"
           style="font-style:normal;font-variant:normal;font-weight:normal;font-stretch:normal;font-size:96px;font-family:'Ink Free';-inkscape-font-specification:'Ink Free'" /></flowRegion><flowPara
         id="flowPara4510-6" /></flowRoot>    <path
       style="fill:#00115e;fill-opacity:0.73469388;stroke:none;stroke-width:0.26458335px;stroke-linecap:butt;stroke-linejoin:miter;stroke-opacity:1"
       d="m 17.732766,190.66431 5.291667,5.29167 h 89.958337 v -27.78125 l -5.29167,-5.29167 H 17.732766 Z"
       id="path4596-0"
       inkscape:connector-curvature="0"
       sodipodi:nodetypes="ccccccc" />
    <g
       transform="matrix(0.26458334,0,0,0.26458334,0.53484923,136.42473)"
       aria-label="CÆCUS"
       style="font-style:normal;font-variant:normal;font-weight:normal;font-stretch:normal;font-size:96px;line-height:1.25;font-family:'Open Sans';-inkscape-font-specification:'Open Sans';letter-spacing:0px;word-spacing:0px;fill:#ffffff;fill-opacity:1;stroke:none"
       id="flowRoot4528-6">
      <path
         d="m 117.33789,136.24235 q -11.29687,0 -17.859374,7.54687 -6.515625,7.5 -6.515625,20.57813 0,13.45312 6.28125,20.8125 6.328129,7.3125 17.999999,7.3125 7.17188,0 16.35938,-2.57813 v 6.98438 q -7.125,2.67187 -17.57813,2.67187 -15.14062,0 -23.390624,-9.1875 -8.203125,-9.1875 -8.203125,-26.10937 0,-10.59375 3.9375,-18.5625 3.984375,-7.96875 11.4375,-12.28125 7.499999,-4.3125 17.624999,-4.3125 10.78125,0 18.84375,3.9375 l -3.375,6.84375 q -7.78125,-3.65625 -15.5625,-3.65625 z"
         id="path4560-3"
         inkscape:connector-curvature="0"
         style="fill:#ffffff;fill-opacity:1" />
      <path
         d="M 217.18164,198.63297 H 182.02539 V 170 h -20.52232 l -14.21205,28.63297 c 0,0 -2.87523,0 -8.25,0 20.66761,-42.47773 25.40839,-58.47763 33.61161,-65.85268 2.23469,-4.20992 44.52901,-2.67857 44.52901,-2.67857 v 7.07813 h -27.1875 v 25.7889 h 25.35938 V 170 h -25.35938 v 21.50797 h 27.1875 z m -52.49107,-35.80485 h 17.33482 v -25.64827 c 0,0 -4.8721,1.76415 -6.60269,3.57142 -5.65909,5.90986 -10.73213,22.07685 -10.73213,22.07685 z"
         id="path4562-7"
         inkscape:connector-curvature="0"
         sodipodi:nodetypes="ccccccccccccccccccccac"
         style="fill:#ffffff;fill-opacity:1" />
      <path
         d="m 261.71289,136.24235 q -11.29687,0 -17.85937,7.54687 -6.51563,7.5 -6.51563,20.57813 0,13.45312 6.28125,20.8125 6.32813,7.3125 18,7.3125 7.17188,0 16.35938,-2.57813 v 6.98438 q -7.125,2.67187 -17.57813,2.67187 -15.14062,0 -23.39062,-9.1875 -8.20313,-9.1875 -8.20313,-26.10937 0,-10.59375 3.9375,-18.5625 3.98438,-7.96875 11.4375,-12.28125 7.5,-4.3125 17.625,-4.3125 10.78125,0 18.84375,3.9375 l -3.375,6.84375 q -7.78125,-3.65625 -15.5625,-3.65625 z"
         id="path4564-1"
         inkscape:connector-curvature="0"
         style="fill:#ffffff;fill-opacity:1" />
      <path
         d="m 344.68164,130.10172 v 44.34375 q 0,11.71875 -7.07812,18.42188 -7.07813,6.70312 -19.45313,6.70312 -12.375,0 -19.17187,-6.75 -6.75,-6.75 -6.75,-18.5625 v -44.15625 h 7.96875 v 44.71875 q 0,8.57813 4.6875,13.17188 4.6875,4.59375 13.78125,4.59375 8.67187,0 13.35937,-4.59375 4.6875,-4.64063 4.6875,-13.26563 v -44.625 z"
         id="path4566-0"
         inkscape:connector-curvature="0"
         style="fill:#ffffff;fill-opacity:1" />
      <path
         d="m 401.54102,180.3986 q 0,9.04687 -6.5625,14.10937 -6.5625,5.0625 -17.8125,5.0625 -12.1875,0 -18.75,-3.14062 v -7.6875 q 4.21875,1.78125 9.1875,2.8125 4.96875,1.03125 9.84375,1.03125 7.96875,0 12,-3 4.03125,-3.04688 4.03125,-8.4375 0,-3.5625 -1.45313,-5.8125 -1.40625,-2.29688 -4.78125,-4.21875 -3.32812,-1.92188 -10.17187,-4.35938 -9.5625,-3.42187 -13.6875,-8.10937 -4.07813,-4.6875 -4.07813,-12.23438 0,-7.92187 5.95313,-12.60937 5.95312,-4.6875 15.75,-4.6875 10.21875,0 18.79687,3.75 l -2.48437,6.9375 q -8.48438,-3.5625 -16.5,-3.5625 -6.32813,0 -9.89063,2.71875 -3.5625,2.71875 -3.5625,7.54687 0,3.5625 1.3125,5.85938 1.3125,2.25 4.40625,4.17187 3.14063,1.875 9.5625,4.17188 10.78125,3.84375 14.8125,8.25 4.07813,4.40625 4.07813,11.4375 z"
         id="path4568-6"
         inkscape:connector-curvature="0"
         style="fill:#ffffff;fill-opacity:1" />
    </g>
  </g>
</svg>
