<svg xmlns="http://www.w3.org/2000/svg" width="360" height="125" viewBox="0 0 95.25 33.073">
  <path fill="#00115e" d="M95.25 0H0v33.073h95.25"/>
  <path fill="#ffffff" d="M13.848 9.59q-2.99 0-4.726 1.996Q7.4 13.57 7.4 17.03q0 3.559 1.661 5.506 1.675 1.935 4.763 1.935 1.897 0 4.328-.682v1.848q-1.885.707-4.65.707-4.006 0-6.19-2.431-2.17-2.431-2.17-6.908 0-2.803 1.042-4.912Q7.237 9.986 9.21 8.845q1.985-1.141 4.664-1.141 2.852 0 4.985 1.042l-.893 1.81q-2.058-.967-4.117-.967zM40.265 26.097h-9.302V18.52h-5.43l-3.76 7.576H19.59c5.468-11.24 6.723-15.473 8.893-17.424.591-1.114 11.782-.709 11.782-.709v1.873H33.07v6.823h6.71v1.86h-6.71v5.691h7.194zm-13.889-9.474h4.587V9.837s-1.29.467-1.747.945c-1.497 1.564-2.84 5.841-2.84 5.841zM52.047 9.59q-2.989 0-4.725 1.996-1.724 1.984-1.724 5.445 0 3.559 1.662 5.506 1.674 1.935 4.762 1.935 1.898 0 4.329-.682v1.848q-1.886.707-4.651.707-4.006 0-6.19-2.431-2.17-2.431-2.17-6.908 0-2.803 1.042-4.912 1.055-2.108 3.026-3.249 1.985-1.141 4.664-1.141 2.852 0 4.986 1.042l-.893 1.81q-2.06-.967-4.118-.967zM74 7.964v11.733q0 3.1-1.874 4.874-1.872 1.774-5.147 1.774-3.274 0-5.072-1.786-1.786-1.786-1.786-4.912V7.964h2.108v11.832q0 2.27 1.24 3.485 1.24 1.216 3.647 1.216 2.294 0 3.534-1.216 1.24-1.228 1.24-3.51V7.964zM89.043 21.272q0 2.394-1.736 3.733-1.737 1.34-4.713 1.34-3.225 0-4.961-.831V23.48q1.116.471 2.43.744 1.315.273 2.605.273 2.109 0 3.175-.794 1.067-.806 1.067-2.232 0-.943-.385-1.538-.372-.608-1.265-1.117-.88-.508-2.69-1.153-2.531-.905-3.622-2.146-1.08-1.24-1.08-3.237 0-2.096 1.576-3.336 1.575-1.24 4.167-1.24 2.704 0 4.973.992l-.657 1.836q-2.245-.943-4.366-.943-1.674 0-2.617.72-.942.719-.942 1.996 0 .943.347 1.55.347.596 1.166 1.104.83.496 2.53 1.104 2.853 1.017 3.92 2.183 1.078 1.166 1.078 3.026z"/>
</svg>
